<svg xmlns="http://www.w3.org/2000/svg" version="1.1" xmlns:xlink="http://www.w3.org/1999/xlink" xmlns:svgjs="http://svgjs.dev/svgjs" width="1000" height="750" viewBox="0 0 1000 750"><rect width="1000" height="750" fill="#000000"></rect><g transform="matrix(0.834,0,0,0.834,82.49454545454546,115.4193570850203)"><svg viewBox="0 0 396 247" data-background-color="#ffffff" preserveAspectRatio="xMidYMid meet" height="623" width="1000" xmlns="http://www.w3.org/2000/svg" xmlns:xlink="http://www.w3.org/1999/xlink"><g id="tight-bounds" transform="matrix(1,0,0,1,0.2400000000000091,-0.09999999999999432)"><svg viewBox="0 0 395.52 247.2" height="247.2" width="395.52"><g><svg></svg></g><g><svg viewBox="0 0 395.52 247.2" height="247.2" width="395.52"><g transform="matrix(1,0,0,1,124.13979731903486,47.215199999999996)"><svg viewBox="0 0 147.24040536193027 152.7696" height="152.7696" width="147.24040536193027"><g><svg viewBox="0 0 147.24040536193027 152.7696" height="152.7696" width="147.24040536193027"><g><svg viewBox="0 0 147.2404053619303 152.76960000000003" height="152.7696" width="147.24040536193027"><g><svg viewBox="0 0 147.2404053619303 152.76960000000003" height="152.76960000000003" width="147.2404053619303"><g><svg viewBox="0 0 147.2404053619303 152.76960000000003" height="152.76960000000003" width="147.2404053619303"><g><svg viewBox="0 0 147.2404053619303 152.76960000000003" height="152.76960000000003" width="147.2404053619303"><g transform="matrix(1,0,0,1,0,0)"><svg width="147.2404053619303" viewBox="5.199999809265137 -37.29999923706055 35.95000076293945 37.29999923706055" height="152.76960000000003" data-palette-color="#ca3433"><path d="M9.9 0L5.2 0 5.2-37.3 5.25-37.3 24.2-10.4 22.15-10.8 41.05-37.3 41.15-37.3 41.15 0 36.35 0 36.35-26.3 36.65-23.85 23-4.55 22.9-4.55 9.05-23.85 9.9-26.1 9.9 0Z" opacity="1" transform="matrix(1,0,0,1,0,0)" fill="#ffffff" class="undefined-text-0" data-fill-palette-color="primary" id="text-0"></path></svg></g></svg></g></svg></g></svg></g></svg></g></svg></g></svg></g><path d="M89.079 41.215L89.079 0 336.279 0 336.279 247.2 89.079 247.2 89.079 205.985 102.856 205.985 102.856 233.423 322.502 233.423 322.502 13.777 102.856 13.777 102.856 41.215Z" fill="#ffffff" stroke="transparent" data-fill-palette-color="primary"></path></svg></g><defs></defs></svg><rect width="395.52" height="247.2" fill="none" stroke="none" visibility="hidden"></rect></g></svg></g></svg>